<?xml version="1.0" encoding="UTF-8"?>
<svg id="Layer_1" data-name="Layer 1" xmlns="http://www.w3.org/2000/svg" viewBox="0 0 1920 1920">
  <defs>
    <style>
      .cls-1 {
        fill: #00a863;
        stroke-width: 0px;
      }
    </style>
  </defs>
  <path class="cls-1" d="M294.68,1042.22c-50.05-1.78-100.09-3.75-150.13-5.93v-134.21c-22.75-.07-45.5-.14-68.25-.22,0-50.31,0-100.63,0-150.94,94.04-4.41,188.11-8.12,282.19-11.12v161.2c-21.27,0-42.54-.01-63.81-.02,0,47.08,0,94.16,0,141.25ZM162.61,1018.5c38,1.41,75.99,2.72,114,3.93v-140.61c21.27-.09,42.54-.17,63.81-.25v-121.76c-82.03,2.35-164.05,5.17-246.06,8.45v115.48c22.75-.06,45.5-.12,68.26-.17v134.93Z"/>
  <path class="cls-1" d="M953.1,1054.02c-94.12-.03-188.24-.78-282.35-2.23v-319.38c50.07-.77,100.14-1.34,150.21-1.71v151.07c44.05-.02,88.09-.03,132.14-.03v172.28ZM688.83,1031.58c82.06,1.03,164.13,1.6,246.2,1.7v-130.8c-44.05,0-88.09-.02-132.14-.04v-150.93c-38.02.28-76.04.65-114.06,1.13v278.95Z"/>
  <g>
    <path class="cls-1" d="M656.97,1051.57c-94.11-1.52-188.21-3.75-282.3-6.69v-305.6c94.08-2.92,188.19-5.14,282.3-6.65v318.94ZM392.74,1025.8c82.04,2.16,164.09,3.86,246.15,5.09v-277.58c-82.06,1.22-164.11,2.9-246.15,5.06v267.44Z"/>
    <path class="cls-1" d="M524.85,1038.93c-6.02-.13-12.05-.26-18.07-.4v-146.43c6.02,0,12.05,0,18.07,0v146.83Z"/>
  </g>
  <g>
    <path class="cls-1" d="M1249.25,1051.79c-94.11,1.45-188.23,2.19-282.35,2.23v-323.83c94.12.03,188.24.77,282.35,2.22v319.38ZM984.98,1033.27c82.07-.1,164.13-.66,246.19-1.7v-278.95c-82.06-1.03-164.13-1.59-246.19-1.69v282.33Z"/>
    <path class="cls-1" d="M1240.21,849.01c-63.67-.25-127.33-.42-191.01-.5v-20.71c63.67.12,127.34.37,191.01.74v20.47Z"/>
    <path class="cls-1" d="M1156.54,955.16c-60.2.25-120.4.38-180.6.4v-20.73c60.2-.01,120.4-.1,180.6-.27v20.6Z"/>
  </g>
  <g>
    <path class="cls-1" d="M1843.71,1033.2c-94.04,4.43-188.11,8.16-282.19,11.18v-304.58c94.08,3,188.15,6.71,282.19,11.12,0,94.09,0,188.19,0,282.28ZM1579.59,1024.36c82.03-2.36,164.05-5.2,246.06-8.5,0-82.53,0-165.07,0-247.6-82-3.29-164.02-6.1-246.06-8.45,0,88.19,0,176.37,0,264.56Z"/>
    <path class="cls-1" d="M1664.58,1031.26c-6.02.21-12.05.42-18.07.63,0-67.37,0-134.74,0-202.11,6.02.09,12.05.18,18.07.28,0,67.07,0,134.14,0,201.2Z"/>
    <path class="cls-1" d="M1757.92,941.83c-6.02.09-12.04.18-18.07.26v-186.44c6.02.23,12.04.47,18.07.71v185.47Z"/>
  </g>
  <path class="cls-1" d="M1547.74,1044.06c-94.08,2.93-188.19,5.16-282.3,6.69,0-106.29,0-212.58,0-318.86,94.11,1.53,188.21,3.77,282.3,6.72,0,101.82,0,203.64,0,305.45ZM1283.52,1030.07c82.06-1.23,164.11-2.92,246.15-5.08v-267.31c-82.04-2.17-164.09-3.88-246.15-5.11v277.51Z"/>
  <path class="cls-1" d="M1415.64,948.78c-6.02.05-12.05.11-18.07.16v-118.46c6.02.05,12.05.11,18.07.17,0,39.38,0,78.76,0,118.13Z"/>
</svg>